<?xml version="1.0" encoding="UTF-8"?>
<svg id="Layer_1" xmlns="http://www.w3.org/2000/svg" xmlns:xlink="http://www.w3.org/1999/xlink" version="1.1" viewBox="0 0 800 250">
  <!-- Generator: Adobe Illustrator 29.3.1, SVG Export Plug-In . SVG Version: 2.1.0 Build 151)  -->
  <defs>
    <style>
      .st0 {
        fill: #f8f9f9;
      }

      .st1 {
        fill: #f9fafa;
      }

      .st2 {
        fill: #343434;
      }

      .st3 {
        fill: #29376a;
      }

      .st4 {
        fill: #29386b;
      }

      .st5 {
        fill: #2a386b;
      }

      .st6 {
        fill: #29386a;
      }

      .st7 {
        fill: #d22d29;
      }

      .st8 {
        fill: #fafbfb;
      }

      .st9 {
        fill: #f0f1f1;
      }

      .st10 {
        fill: #fdfefe;
      }

      .st11 {
        fill: #f5f6f6;
      }

      .st12 {
        fill: #223165;
      }

      .st13 {
        fill: #fcfdfd;
      }
    </style>
  </defs>
  <path class="st10" d="M74,1c9.7,0,19.4,0,29.5.3-.4,1.2-1.2,2.2-2.2,3-2.8,2.5-5.6,5-8.8,7.7-6.5,0-12.5,0-18.5-.5,0-3.8,0-7.1,0-10.5Z"/>
  <path class="st9" d="M131.5,1c-2,5.4-6.7,5.7-12.5.4,4-.4,8-.4,12.5-.4Z"/>
  <path class="st2" d="M575.5,37.5c2.2,0,3.9,0,6.1,0,1.6,0,2.7.1,4.4.3,0,6.9.1,13.6-.1,20.4,0,1-1.5,2.3-2.7,2.8-5,2.1-10.1,3.9-15.6,6,4.8,10.7,4.6,21.4,1.1,31.9-4.5,13.4-14.5,21.5-27.6,25.9-12.6,4.2-25.7,5-38.9,3.9-2.2-.2-4.3-1.2-5.2,1.9-.8,2.9-1.1,6.2,2.3,7.2,4.8,1.5,9.9,2.8,15,3.1,10.8.6,21.6.2,32.4.8,10.5.5,20.3,3.1,28.1,10.8,10.2,10.1,10.9,22.7,9,35.7-2.8,18.6-15.5,29.5-31.9,35.7-25.3,9.6-51.6,10.4-77.8,4.1-11.9-2.9-22.3-8.9-27.2-21.1-6.9-17.2,1-34.4,18.3-40.7,2.6-.9,5.3-1.8,8.6-2.9-8-5.8-15.5-11.4-14.3-22.3,1.1-10.5,9.3-15.1,17.1-20.2-2.7-1.9-5.3-3.7-8.4-5.9-11.3-10.2-13.9-23-13.6-36.8,1.6-26.1,20.6-39.3,44.7-41.8,7.8-.8,15.8-.2,24.6-.2,2.9.1,5,.2,7.5.5,9.4.4,18.5.6,27.9,1,2.9,0,5.3,0,7.7-.2,2.7,0,5.3.2,8.4.3M525.9,72.3c-1.7-2.7-3.3-5.5-5.4-8.8-3.5-.6-7-1.2-11.2-1.7-7.5,2.5-10.4,7.4-10.5,17.9,0,2.4.2,4.9.2,8.1.2,1.1.2,2.3.6,3.4,2.3,7.8,6.7,11.6,13.4,11.5,6.9,0,11.5-4.2,13.2-12.4.6-3,.5-6.2.8-10.2-.4-2.4-.8-4.8-1.1-7.9M530.6,199.2c3.5-1.8,7.4-3.1,10.4-5.5,5.1-4.2,3.8-11.1-2.4-13.6-2.9-1.2-6.1-1.9-9.2-2.1-8.6-.4-17.3-.8-25.9-.5-4.4.1-8.9,1.1-12.9,2.8-3.9,1.6-6.8,4.8-6.7,9.6,0,4.6,2.7,7.4,6.6,9.1,3,1.3,6.3,3,9.4,2.9,10-.3,20-1.4,30.7-2.6Z"/>
  <path class="st2" d="M625.5,41.3c18.5-5.1,36.8-7.3,55.6-5.5,27.9,2.7,44,20.5,44,48.7,0,27.5,0,55,0,82.5s0,3.6,0,6c-10.3,0-20.4,0-30.5-.1-1,0-2.3-1.6-2.9-2.7-2.7-5-5.1-10-7.8-15.2-3.6,3.4-6.6,6.8-10.2,9.6-16.6,13-35.2,13.6-54.2,6.8-11-3.9-17.4-13.1-20-24.4-3.3-13.9-3.7-27.8,5.4-40,7.7-10.4,19.2-14.8,31.3-16.7,11.8-1.9,23.8-2.2,35.7-3.1,2.1-.2,4.3,0,6.3,0,1.5-11.8-4.2-18.8-15.3-18.8-11.4,0-22.2,3.4-32.7,7.7-1.8.7-3.7,1.4-5.8,2.1-4.4-10.2-8.8-20.2-13.4-30.7,5-2,9.5-3.9,14.5-5.9M658.1,114.2c-.9.3-1.9.6-2.8,1.1-8.7,4-12.5,12.3-9.3,20.2,2.6,6.4,11.2,8.7,19.9,5.5,10.9-4,15.4-14.3,12.2-28.8-6.4.6-12.8,1.2-20,2Z"/>
  <path class="st2" d="M421,118.1h-73.9c-.7,10.8,6.8,20.2,18.2,22.7,11.8,2.6,23.5,1.2,35.1-1.6,6.9-1.7,13.5-4.4,20.4-6.7v32.8c-16.8,8.8-35.2,10.3-53.9,9.8-13.7-.4-26.8-2.8-38.6-10-15.2-9.2-24-23-27.1-40.4-3.2-17.5-2.6-34.8,3.6-51.6,8.1-22,24.7-33.4,47.2-36.9,11.6-1.8,23.2-1.5,34.7,1.3,24.2,5.7,39.3,21.7,42.1,46.4,1.3,11,.6,22.2,0,33.6-3.1.4-5.4.4-7.8.5M386.3,81.5c-3.3-10.6-11-15.8-21.7-14.4-10.3,1.3-16.3,8.8-16.9,21.2h39.7c-.2-2.2-.4-4.2-1-6.9Z"/>
  <path class="st12" d="M57.6,12.1c5.5,0,10.5,0,16,0,6.5,0,12.5,0,19,0,6.3.3,10.6,3,13.3,8.7,9.1,17.8,17.9,35.3,26.8,52.9,3.8,7.6,7.6,15.1,11.1,22.3-9.3,9.2-18.4,18.4-27.7,27.6-6.9-13.1-14-26.8-21.2-40.5,0,13,0,25.7,0,38.3,0,8.2,2.1,17.2-.8,24.2-3,7.1-11,12.2-16.8,18.1-7.7,7.8-15.4,15.6-23.9,24.2V12.5c1,0,2.4-.2,4.3-.4Z"/>
  <path class="st7" d="M283.9,85c0,44.4,0,88.3,0,132.5h-41.7c-.1-1.2-.3-2.2-.3-3.1,0-41.3.1-82.6,0-123.9,0-4.9,1.4-8.4,5-11.8,11.1-10.8,21.9-21.9,32.8-32.8,1.1-1.1,2.3-2.2,4.2-4v43.1Z"/>
  <path class="st7" d="M237.3,90.3c-8.9,17.7-17.8,35.5-26.8,53.1-7.1,13.8-14.5,27.4-21.4,41.3-5,10.2-13.6,11.8-23.7,11.5-8.9-.3-14.4-4.8-18.4-12.2-1.4-2.6-1.2-4.3,1-6.4,29.4-29.2,58.7-58.5,88.4-87.8.6.2.7.3.8.4Z"/>
  <path class="st3" d="M247.1,61.1c11.5-11.6,22.8-22.9,34.8-35,1.2,1.5,2.3,2.9,3,3.8-47.7,47.7-95.3,95.3-143.2,143.2-.7-.9-1.8-2.2-3-3.7,36-36,72-72,108.3-108.3Z"/>
  <path class="st6" d="M267.6,32.6c-27.3,27.3-54.4,54.4-81.7,81.7-1.4-1.4-2.7-2.5-3.6-3.3,33.4-33.4,66.5-66.5,100.1-100.1.9.9,2.1,2,3.6,3.4-6.4,6.4-12.3,12.2-18.4,18.4Z"/>
  <path class="st3" d="M199.5,76.8c22.3-22.2,44.3-44.2,66.5-66.4,1.4,1.2,2.6,2.2,3.4,3-22.6,22.6-45,45-67.9,67.8-.5-.9-1.4-2.5-2-4.4Z"/>
  <path class="st5" d="M93.6,159.7c1.2.9,2.2,1.6,2.6,1.9-14.3,14.4-28.2,28.3-42.5,42.6-.4-.5-1.5-1.7-3.1-3.6,3-2.8,6-5.6,8.9-8.5,10-10,20-20,30-29.9,1.1-1.1,2.5-1.8,4.1-2.5Z"/>
  <path class="st3" d="M76.9,198.9c-7,7.1-13.8,13.9-20.8,20.9-1.5-1.5-2.7-2.5-3.6-3.3,13.7-13.7,27.1-27.2,40.8-40.9.7.6,1.9,1.7,3.6,3.3-6.7,6.7-13.3,13.2-20.1,20Z"/>
  <path class="st3" d="M230.1,30.1c6.7-6.7,13.1-13.2,19.7-20,1.6,1.5,2.8,2.6,3.6,3.4-11.8,11.8-23.4,23.4-35.2,35.3-.8-.7-1.9-1.8-3.9-3.6,5.3-5,10.4-9.9,15.7-15.1Z"/>
  <path class="st5" d="M137.4,107.4c2.5-2.9,4.8-5.5,7.2-8.3,2,1.9,3.1,3,4,3.8-9.4,9.5-18.8,18.8-28.5,28.6-.6-.9-1.5-2.2-2.9-4,6.4-6.3,13.1-13.1,20.2-20.1Z"/>
  <path class="st5" d="M128.1,149c9.4-9.4,18.8-18.5,28.5-27.9.7.6,1.9,1.7,2.7,2.5-9.5,9.6-18.8,18.9-28.8,29.1-.6-.8-1.4-2.1-2.3-3.7Z"/>
  <path class="st4" d="M146.1,114.1c1.5-1.6,2.7-2.9,4.1-4.4,1.5,1.4,2.7,2.5,3.4,3.2-9.3,9.3-18.5,18.5-28.2,28.1-.4-.6-1.4-2-2.6-3.7,7.6-7.6,15.3-15.3,23.3-23.2Z"/>
  <path class="st5" d="M162.4,132.7c.9,1,1.6,1.8,2,2.3-9.2,9.2-18.4,18.3-27.8,27.7-.9-.8-2.1-2-3.6-3.4,9-9,17.8-17.8,26.6-26.5.5-.5,1.6-.3,2.8,0Z"/>
  <path class="st6" d="M82.9,208.9c-3.6,3.7-6.9,7.1-10.7,11-1.6-1.5-2.9-2.6-4-3.7,8.4-8.4,16.5-16.5,24.8-24.8,1,.9,2.2,2,4.2,3.8-4.8,4.6-9.5,9.1-14.4,13.7Z"/>
  <path class="st4" d="M95.2,209.2c.1,1.3.3,2.7-.2,3.4-1.9,2.5-4.1,4.7-6.5,7.4-1.8-1.7-3.1-2.8-5.1-4.6,2.8-2.4,5.1-4.8,7.7-6.7.8-.6,2.5,0,4.1.4Z"/>
  <path class="st7" d="M236.7,89.7c.2,0,.6.1.8.5-.4,0-.5-.1-.8-.5Z"/>
  <path class="st1" d="M530.3,199.4c-10.4,1-20.3,2.1-30.4,2.4-3.1.1-6.4-1.6-9.4-2.9-3.9-1.7-6.5-4.5-6.6-9.1-.1-4.8,2.7-8,6.7-9.6,4.1-1.6,8.6-2.6,12.9-2.8,8.6-.3,17.3,0,25.9.5,3.1.2,6.3.9,9.2,2.1,6.1,2.5,7.5,9.3,2.4,13.6-2.9,2.5-6.9,3.7-10.7,5.7Z"/>
  <path class="st0" d="M526.9,81c-.2,3.1,0,6.3-.7,9.4-1.7,8.1-6.3,12.3-13.2,12.4-6.7,0-11.2-3.7-13.4-11.5-.3-1.1-.4-2.3-.1-3.8,1.5-.4,2.5-.5,3.4-.2,7.7,1.9,14.6,1,20.4-4.9.8-.8,2.3-.9,3.5-1.3Z"/>
  <path class="st13" d="M499.1,79c-.2-9.8,2.8-14.7,10.6-16.9.2,2.2.1,4,0,5.9,1.7-.4,3.4-.5,5-1.1,2.1-.8,4.2-1.9,6.3-2.8,1.7,2.7,3.3,5.5,4.7,8.6-2.6,2.3-4.8,4.3-7.1,6.1-6.4,4.9-12.9,3.6-19.4.3Z"/>
  <path class="st8" d="M658.5,114.2c6.8-.7,13.2-1.3,19.6-1.9,3.2,14.5-1.2,24.8-12.2,28.8-8.8,3.2-17.3.8-19.9-5.5-3.2-7.9.5-16.1,9.3-20.2.9-.4,1.9-.7,3.2-1.1Z"/>
  <path class="st11" d="M386.5,81.9c.4,2.3.6,4.2.8,6.5h-39.7c.6-12.4,6.6-19.9,16.9-21.2,10.7-1.4,18.5,3.7,21.9,14.7Z"/>
</svg>
